<svg width="29" height="36" viewBox="0 0 29 36" fill="none" xmlns="http://www.w3.org/2000/svg">
<path d="M14.128 25.0777C13.064 25.8875 10.8673 27.8901 10.8673 30.6187C10.8673 32.42 12.3292 33.8856 14.1263 33.8856C15.9233 33.8856 17.3853 32.42 17.3853 30.6187C17.3853 28.0346 15.1873 25.9379 14.128 25.0777Z" fill="url(#paint0_linear_2_75)"/>
<path d="M21.7645 6.26573C21.3693 5.81876 20.6871 5.79168 20.2567 6.19345L15.2937 10.8256V1.1249C15.2937 0.31286 14.3146 -0.293867 13.5814 0.149664C13.4426 0.233617 10.1443 2.24765 6.81174 5.9051C2.7597 10.3522 0 15.7669 0 21.8394C0 29.6476 6.33706 36 14.1263 36C11.1661 36 8.75792 33.5859 8.75792 30.6186C8.75792 25.8239 13.4132 22.9847 13.6113 22.8662C13.9587 22.6585 14.3935 22.6682 14.7313 22.8908C14.9258 23.019 19.4946 26.0835 19.4946 30.6186C19.4946 33.5859 17.0864 36 14.1263 36C21.9155 36 28.2526 29.6476 28.2526 21.8394C28.2526 15.9434 25.6509 10.6588 21.7645 6.26573Z" fill="url(#paint1_linear_2_75)"/>
<defs>
<linearGradient id="paint0_linear_2_75" x1="14.1263" y1="25.0777" x2="14.1263" y2="33.8856" gradientUnits="userSpaceOnUse">
<stop stop-color="#FF666F"/>
<stop offset="1" stop-color="#F30A18"/>
</linearGradient>
<linearGradient id="paint1_linear_2_75" x1="14.1263" y1="0" x2="14.1263" y2="36" gradientUnits="userSpaceOnUse">
<stop stop-color="#FF666F"/>
<stop offset="1" stop-color="#F30A18"/>
</linearGradient>
</defs>
</svg>
