<svg width="36" height="28" viewBox="0 0 36 28" fill="none" xmlns="http://www.w3.org/2000/svg">
<path d="M12.5165 16.7361V18.8454H6.18328V16.7361H8.29519V8.50071C3.63438 9.02637 0 12.9918 0 17.7907C0 22.9463 4.19435 27.1406 9.34987 27.1406C14.5054 27.1406 18.6997 22.9463 18.6997 17.7907C18.6997 12.9918 15.0654 9.02637 10.4046 8.50071V16.7361H12.5165Z" fill="url(#paint0_linear_2_90)"/>
<path d="M30.5156 16.1719C27.901 16.1719 25.7095 18.0114 25.1634 20.4638C24.05 20.124 23.1952 19.1865 22.9749 18.0264L29.4277 8.37H33.8889V6.26062H24.0044V8.37H26.8907L22.64 14.7309C21.435 8.95859 16.4519 4.55688 10.4046 4.24055V2.10938H17.6451V0H8.29518V8.50071C8.64147 8.46162 8.99331 8.44088 9.34987 8.44088C9.70642 8.44088 10.0583 8.46162 10.4046 8.50071V6.35407C16.2025 6.71562 20.8091 11.5466 20.8091 17.4341C20.8091 20.013 22.6692 22.1643 25.1178 22.6204C25.575 25.1861 27.8205 27.1406 30.5156 27.1406C33.5398 27.1406 36 24.6804 36 21.6562C36 18.6321 33.5398 16.1719 30.5156 16.1719Z" fill="url(#paint1_linear_2_90)"/>
<defs>
<linearGradient id="paint0_linear_2_90" x1="9.34987" y1="8.50071" x2="9.34987" y2="27.1406" gradientUnits="userSpaceOnUse">
<stop stop-color="#5992FF"/>
<stop offset="1" stop-color="#0A59F3"/>
</linearGradient>
<linearGradient id="paint1_linear_2_90" x1="22.1476" y1="0" x2="22.1476" y2="27.1406" gradientUnits="userSpaceOnUse">
<stop stop-color="#5992FF"/>
<stop offset="1" stop-color="#0A59F3"/>
</linearGradient>
</defs>
</svg>
