<svg width="26" height="36" viewBox="0 0 26 36" fill="none" xmlns="http://www.w3.org/2000/svg">
<path d="M20.273 10.0389C17.7205 5.82572 14.8814 2.17928 13.4161 0.380618C13.22 0.139738 12.9258 -9.38629e-05 12.6152 4.72717e-08C12.3046 4.72717e-08 12.0105 0.139832 11.8143 0.380712C10.3491 2.17994 7.51 5.8276 4.95742 10.0412C1.66794 15.4713 0 19.9609 0 23.3849C0 30.3409 5.65912 36 12.6151 36C19.5712 36 25.2303 30.3409 25.2303 23.3849C25.2304 19.9586 23.5626 15.4684 20.273 10.0389ZM14.3463 31.3536C13.6097 31.542 12.845 31.6374 12.0732 31.6374C7.36021 31.6374 3.52595 28.0755 3.52595 23.6973C3.52595 22.6403 3.80486 21.4054 4.35471 20.027C4.44759 19.7941 4.71222 19.6612 4.97311 19.7176C5.2338 19.7737 5.40885 20.001 5.38199 20.2482C5.34988 20.5438 5.33354 20.8326 5.33354 21.1061C5.33354 25.8707 9.17268 29.8605 14.2637 30.3864C14.5171 30.4126 14.7148 30.6021 14.735 30.8383C14.7553 31.0745 14.592 31.2907 14.3463 31.3536Z" fill="url(#paint0_linear_2_85)"/>
<defs>
<linearGradient id="paint0_linear_2_85" x1="12.6151" y1="0" x2="12.6151" y2="36" gradientUnits="userSpaceOnUse">
<stop stop-color="#4DFF94"/>
<stop offset="1" stop-color="#00CC52"/>
</linearGradient>
</defs>
</svg>
